<?xml version="1.0" encoding="utf-8"?>
<!-- Generator: Adobe Illustrator 25.2.1, SVG Export Plug-In . SVG Version: 6.00 Build 0)  -->
<svg version="1.1" id="Capa_1" xmlns="http://www.w3.org/2000/svg" xmlns:xlink="http://www.w3.org/1999/xlink" x="0px" y="0px"
	 viewBox="0 0 369.6 241.9" style="enable-background:new 0 0 369.6 241.9;" xml:space="preserve">
<style type="text/css">
	.st0{fill:#D77633;}
</style>
<path class="st0" d="M369.6,182.3c-2.1,4.2-3.8,8.8-6.5,12.6c-3.8,5.1-9.4,7.8-15.8,8.3c-2.5,0.2-3.4,1-3.2,3.5
	c0.2,2.8,0.1,5.5,0,8.3c-0.2,16.1-10.3,26.3-26.3,26.9c-0.5,0-1,0-1.4,0c-87.7,0-175.4,0-263.2,0c-9,0-16.8-2.6-22.5-10
	c-4-5.1-5.3-11-5.3-17.2c0-3.6,0-7.2,0-10.9c-14.4-1.6-23.7-8.9-25.2-23.4c-1.2-11.9,4.9-20.1,15.6-25.6c-4-7.9-4.4-15.9,0.5-23.5
	s12.5-10.5,21.6-10v-13.5h-4.5c-8.9-0.1-13.7-4.8-14.4-13.7c-2.2-29.5,10.6-51,35-66.4C73.2,15.7,94.4,9.4,116.4,5.5
	c31.5-5.6,63.4-6.3,95.3-4.7c24,1.2,47.6,4.5,70.6,11.8c19.2,6.1,37,14.9,51.1,29.9c11.1,11.5,17.2,26.8,17,42.8
	c0,3.1,0.1,6.3-0.1,9.4c-0.5,8.2-5.5,13-13.7,13.1c-1.6,0-3.3,0-5.3,0c0,3.6,0,6.8,0,10c0,1,0.1,2.1,0.2,3.5
	c9-0.4,16.6,2.2,21.6,9.9c4.9,7.5,4.8,15.4,0.6,23.4c2.2,1.4,4.5,2.7,6.6,4.3c5.1,3.9,7.5,9.5,9.3,15.4L369.6,182.3z M31.4,95.7
	h302.3c0.7,0,1.5-0.1,2.2,0c1.8,0.1,2.5-0.5,2.6-2.4c1.6-20.8-5.7-37.6-22.3-50.4c-14.9-11.4-32-17.9-50-22.4
	c-20.4-5.1-41.1-7.3-62.1-8.1c-33.2-1.3-66.1,0-98.6,7.6c-19,4.4-37.1,11.1-52.7,23.3C35.9,56.5,28.8,73.8,31.4,95.7z M92,165.3
	c-0.5,0-1.2-0.1-1.9-0.1c-21.2,0-42.3,0-63.5,0c-1.6,0-3.1,0.2-4.6,0.5c-5.5,1.3-9.5,5.9-9.9,11.5c-0.7,8.8,5.3,14.5,15.3,14.5
	h246.9c1.1,0,2.3-0.1,3.2-0.1c-0.9-4-2.1-7.8-2.6-11.6c-0.6-4.1,1.7-6.9,5.2-7.3s6,2,6.6,6.1c1.2,8.6,6,13,14.8,13
	c13.8,0,27.7,0,41.5,0c1.8,0,3.6-0.2,5.3-0.7c6.9-2.1,10.8-9.4,8.8-16.3c-1.2-4.1-4.3-7.3-8.4-8.6c-2.2-0.6-4.5-0.9-6.8-0.8
	c-32.4,0-64.7,0-97.1,0c-1.6,0-3.1,0.1-4.7,0.4c-5.4,0.8-9.7,5-10.6,10.4c-0.2,1.2-0.3,2.4-0.6,3.5c-0.5,3-3.2,5.1-6.2,4.9
	c-3.1-0.1-5.4-2.7-5.3-5.8c0.3-3.5,1.3-7,2.1-10.5c0.2-0.9,0.5-1.7,1-2.9h-103c-10.2-0.1-14.2,3.2-16.2,13.4
	c-0.7,3.7-3.2,5.9-6.3,5.6c-3.2-0.2-5.7-2.9-5.5-6.1c0-0.2,0-0.4,0.1-0.7C89.9,173.5,91.2,169.6,92,165.3z M37.4,203.8v9.9
	c0,11.4,4.8,16.2,16.2,16.2H316c1.3,0,2.6,0,4-0.1c6.1-0.6,11.2-4.9,11.8-10.9c0.5-5,0.1-10,0.1-15.2L37.4,203.8z M319,108H50.5v13
	H319V108z M84.8,152.5l0.5,0.8c1.7,0,3.3,0,5,0c5,0,10.6,1.2,15-0.5s7.3-6.7,11-10.1c3-2.8,6.1-5.5,9.2-8.3l-0.8-1.1
	c-6.4,0-12.9,0-19.3,0c-0.7,0-1.4,0.3-1.9,0.8C97.2,140.2,91,146.3,84.8,152.5z M163.7,133.2h-4.2c-5.6,0-11.9-1.4-16.7,0.6
	s-8.2,7.4-12.2,11.4c-2.5,2.5-4.9,5-8,8.1c7.3,0,13.6,0,19.9,0c0.7,0,1.4-0.2,2-0.7C150.7,146.4,156.9,140.1,163.7,133.2z
	 M202.3,133.2c-4.6,0-8.1,0.4-11.5-0.1c-7.2-1-12.5,1.4-17.1,7c-3.6,4.5-8.1,8.3-13,13.1c7.5,0,13.9,0,20.4,0c0.7,0,1.4-0.3,1.9-0.8
	C189.1,146.3,195.4,140.2,202.3,133.2z M86.5,134.2l-0.3-0.9c-2.7,0-5.5,0.4-8.1-0.1c-8.7-1.4-15.4,1.5-20.8,8.5
	c-3.1,4-7.1,7.2-11.5,11.6c7.6,0,14,0,20.5,0c0.8-0.1,1.6-0.5,2.1-1.1C74.4,146.2,80.4,140.2,86.5,134.2z M240.4,133.6
	c-19.6-1.9-19.6-1.9-32.6,11.1c-2,2-3.9,3.9-5.9,5.9c-0.7,0.7-1.3,1.5-2.3,2.8c7.1,0,13.4,0,19.7,0c0.8-0.1,1.6-0.4,2.2-1
	C227.7,146.2,233.8,140.2,240.4,133.6L240.4,133.6z M279,133.3c-7.3,0-13.5-0.1-19.6,0.1c-1.4,0.1-2.7,0.8-3.6,1.7
	c-5.4,5.2-10.6,10.5-15.8,15.8c-0.7,0.8-1.3,1.6-1.9,2.5c6.9,0,13.1,0,19.3,0c0.8,0,1.6-0.3,2.2-0.8
	C265.9,146.3,272,140.2,279,133.3L279,133.3z M316.5,134.1l-0.3-0.8c-1.6,0-3.3,0-4.9,0c-5.1,0.1-10.9-1.2-15.3,0.6
	s-7.4,6.7-10.9,10.2c-2.8,2.8-5.6,5.6-9.2,9.2c7.5,0,13.8,0,20.1,0c0.8-0.1,1.6-0.4,2.2-0.9C304.3,146.3,310.4,140.2,316.5,134.1
	L316.5,134.1z M314.1,153.3h8.3c4.2,0,8.4,0.1,12.6-0.1c5.5-0.1,9.9-4.6,9.8-10.1c-0.1-4.7-3.5-8.8-8.2-9.6c-1.1-0.3-2.3,0-3.3,0.6
	C327.1,140.2,321,146.4,314.1,153.3z M48.2,133.3c-5.1,0-9.9-0.2-14.6,0.1c-4.5,0.3-7.7,3.6-8.6,7.9c-0.9,4.2,0.9,7.9,4.8,10.3
	L48.2,133.3z"/>
<path class="st0" d="M84.8,152.5c6.2-6.1,12.4-12.3,18.6-18.4c0.5-0.5,1.2-0.8,1.9-0.8c6.4-0.1,12.9,0,19.3,0l0.8,1.1
	c-3.1,2.8-6.2,5.5-9.2,8.3c-3.7,3.4-6.7,8.3-11,10.1s-9.9,0.5-15,0.5c-1.7,0-3.3,0-5,0L84.8,152.5z"/>
<path class="st0" d="M163.7,133.2c-6.8,6.9-13,13.1-19.3,19.4c-0.6,0.4-1.2,0.7-1.9,0.7c-6.3,0-12.6,0-19.9,0c3.1-3.1,5.5-5.6,8-8.1
	c4-4,7.4-9.4,12.2-11.4c4.8-2,11.1-0.5,16.7-0.6L163.7,133.2z"/>
<path class="st0" d="M202.3,133.2c-6.9,6.9-13.1,13.1-19.3,19.2c-0.5,0.5-1.2,0.8-1.9,0.8c-6.4,0-12.9,0-20.4,0
	c4.8-4.8,9.4-8.6,13-13.1c4.6-5.6,9.9-8,17.1-7C194.1,133.6,197.7,133.2,202.3,133.2z"/>
<path class="st0" d="M86.5,134.2c-6,6-12.1,12-18.1,18c-0.6,0.6-1.3,1-2.1,1.1c-6.4,0.1-12.9,0-20.5,0c4.4-4.3,8.4-7.6,11.5-11.6
	c5.4-7.1,12.1-9.9,20.8-8.5c2.6,0.4,5.4,0.1,8.1,0.1L86.5,134.2z"/>
<path class="st0" d="M240.4,133.6c-6.6,6.6-12.7,12.7-18.9,18.7c-0.6,0.6-1.4,0.9-2.2,1c-6.3,0.1-12.7,0-19.7,0
	c1.1-1.3,1.6-2.1,2.3-2.8c1.9-2,3.9-3.9,5.9-5.9C220.8,131.6,220.8,131.6,240.4,133.6z"/>
<path class="st0" d="M279,133.2c-7,6.9-13.1,13.1-19.4,19.2c-0.6,0.5-1.4,0.8-2.2,0.8c-6.2,0.1-12.5,0-19.3,0
	c0.6-0.9,1.2-1.7,1.9-2.5c5.2-5.3,10.5-10.6,15.8-15.8c1-1,2.3-1.6,3.6-1.7C265.5,133.2,271.7,133.2,279,133.2z"/>
<path class="st0" d="M316.5,134.1c-6.1,6.1-12.2,12.2-18.4,18.2c-0.6,0.6-1.4,0.9-2.2,0.9c-6.3,0.1-12.6,0-20.1,0
	c3.5-3.5,6.4-6.4,9.2-9.2c3.6-3.5,6.6-8.5,10.9-10.2s10.1-0.6,15.3-0.6c1.6,0,3.3,0,4.9,0L316.5,134.1z"/>
<path class="st0" d="M314.1,153.3c6.9-6.9,13-13.1,19.3-19.2c1-0.6,2.1-0.8,3.3-0.6c5.4,1,9,6.1,8,11.5c-0.8,4.7-4.9,8.1-9.6,8.2
	c-4.2,0.2-8.4,0.1-12.6,0.1L314.1,153.3z"/>
<path class="st0" d="M48.2,133.3l-18.5,18.3c-3.9-2.5-5.7-6.1-4.8-10.3c0.9-4.4,4.1-7.6,8.6-7.9C38.3,133.1,43,133.3,48.2,133.3z"/>
<path class="st0" d="M76.5,57c0.2-3.3,2.8-5.8,6.1-5.9c3.3,0.4,5.6,3.4,5.2,6.7c-0.4,2.7-2.5,4.8-5.2,5.2
	C79.3,62.9,76.7,60.3,76.5,57z"/>
<path class="st0" d="M287.1,63c-3.3,0.1-6-2.5-6.1-5.8c-0.1-3.3,2.5-6,5.8-6.1c3.2-0.1,5.9,2.5,6.1,5.7
	C292.9,60,290.3,62.8,287.1,63z"/>
<path class="st0" d="M152.3,31.5c0,3.2-2.7,5.8-5.9,5.8c-3.2,0-5.8-2.7-5.8-5.9c0-3.2,2.6-5.8,5.7-5.8
	C149.5,25.5,152.2,28.2,152.3,31.5C152.3,31.4,152.3,31.5,152.3,31.5z"/>
<path class="st0" d="M101.2,76.3c0,3.2-2.6,5.7-5.8,5.7c-0.1,0-0.2,0-0.2,0c-3.1-0.1-5.7-2.6-5.7-5.8c0-3.2,2.6-5.9,5.8-5.9
	c0,0,0.1,0,0.1,0c3.2,0,5.8,2.6,5.8,5.8C101.2,76.2,101.2,76.2,101.2,76.3z"/>
<path class="st0" d="M191.3,56.6c-3.2,0.1-5.9-2.5-6-5.8c0,0,0-0.1,0-0.1c-0.1-3.1,2.4-5.8,5.5-5.9c3.2-0.2,6,2.3,6.2,5.6
	c0,0,0,0,0,0.1C197.1,53.7,194.5,56.4,191.3,56.6z"/>
<path class="st0" d="M216.1,69.7c0.1,3.3-2.6,6-5.8,6c-3.2,0.1-5.8-2.4-6-5.6c-0.1-3.3,2.5-6,5.7-6.2
	C213.3,63.8,216,66.4,216.1,69.7z"/>
<path class="st0" d="M229.5,43.7c-3.2,0-5.8-2.7-5.8-5.9c0-3.1,2.4-5.6,5.5-5.8c3.2-0.2,6,2.3,6.2,5.5c0.2,3.2-2.3,6-5.5,6.2
	C229.8,43.7,229.6,43.7,229.5,43.7z"/>
<path class="st0" d="M267.2,69.8c0.1,3.2-2.5,5.8-5.6,5.9c-0.1,0-0.2,0-0.3,0c-3.1,0-5.7-2.5-5.8-5.6c-0.1-3.3,2.5-6,5.8-6.1
	C264.5,63.8,267.2,66.4,267.2,69.8C267.2,69.7,267.2,69.7,267.2,69.8z"/>
<path class="st0" d="M133.8,51.1c3.3,0.2,5.8,2.9,5.7,6.2c-0.1,3.1-2.6,5.6-5.7,5.7c-3.3,0.1-6-2.5-6.1-5.7c-0.1-3.3,2.5-6,5.7-6.1
	C133.4,51.1,133.6,51.1,133.8,51.1z"/>
</svg>
