<svg id="Capa_1" data-name="Capa 1" xmlns="http://www.w3.org/2000/svg" viewBox="0 0 369.58 241.92"><path d="M482.43,482.12c-2.14,4.23-3.76,8.84-6.53,12.61-3.77,5.11-9.39,7.82-15.79,8.3-2.48.18-3.37,1-3.21,3.49.18,2.76.07,5.54,0,8.3-.23,16.07-10.27,26.35-26.27,26.91-.48,0-1,0-1.44,0q-131.58,0-263.17,0c-9,0-16.77-2.61-22.51-10-4-5.08-5.26-11-5.32-17.22,0-3.59,0-7.19,0-10.93-14.41-1.59-23.68-8.85-25.2-23.39-1.24-11.88,4.87-20.14,15.6-25.57-4-7.87-4.41-15.85.52-23.48s12.53-10.45,21.64-10V407.63h-4.53c-8.89-.07-13.67-4.84-14.35-13.67-2.25-29.49,10.56-51,35-66.39,19.13-12.08,40.38-18.34,62.4-22.28,31.55-5.65,63.38-6.31,95.3-4.66,24,1.24,47.63,4.48,70.57,11.82,19.23,6.15,37,14.9,51.11,29.88a60.46,60.46,0,0,1,17,42.8c0,3.13.1,6.27-.09,9.39-.49,8.25-5.5,13-13.73,13.1-1.65,0-3.3,0-5.31,0,0,3.58,0,6.8,0,10,0,1.05.11,2.1.19,3.5,9-.4,16.61,2.25,21.6,9.93,4.89,7.52,4.81,15.38.62,23.41,2.21,1.43,4.48,2.72,6.56,4.29,5.13,3.87,7.49,9.49,9.33,15.4ZM144.29,395.54H446.55c.72,0,1.45-.06,2.16,0,1.79.15,2.51-.51,2.65-2.42,1.6-20.82-5.66-37.63-22.31-50.39-14.9-11.43-32-17.91-49.95-22.4C358.72,315.24,338,313,317,312.21c-33.17-1.3-66.15,0-98.61,7.56-19,4.42-37.06,11.1-52.67,23.27C148.71,356.29,141.6,373.61,144.29,395.54Zm60.61,69.6c-.53,0-1.23-.12-1.93-.13q-31.75,0-63.52,0a22,22,0,0,0-4.65.49A12.83,12.83,0,0,0,124.89,477c-.68,8.76,5.32,14.47,15.29,14.47H387.05c1.14,0,2.29-.1,3.19-.14-.93-4-2.1-7.78-2.63-11.63-.57-4.11,1.68-6.91,5.19-7.3s6,2,6.59,6.09c1.18,8.65,6,12.95,14.78,13q20.74,0,41.5,0a20.37,20.37,0,0,0,5.34-.68,13.07,13.07,0,0,0,.4-24.91,24.38,24.38,0,0,0-6.77-.8q-48.54-.07-97.08,0a29.11,29.11,0,0,0-4.67.35,12.73,12.73,0,0,0-10.65,10.36c-.23,1.18-.34,2.38-.6,3.55a5.91,5.91,0,0,1-6.2,4.86,5.55,5.55,0,0,1-5.31-5.77c.28-3.53,1.33-7,2.09-10.49.19-.86.55-1.67.95-2.87h-103C220,465,216,468.34,214,478.51c-.72,3.68-3.19,5.9-6.28,5.65a5.82,5.82,0,0,1-5.41-6.8C202.77,473.37,204,469.46,204.9,465.14ZM150.26,503.6v9.9c0,11.44,4.79,16.25,16.18,16.25H428.82c1.32,0,2.65,0,4-.09,6.07-.61,11.18-4.93,11.81-10.86.53-5,.11-10,.11-15.2ZM431.9,407.84H163.32v13H431.9Zm-234.22,44.5.46.8c1.66,0,3.33,0,5,0,5,0,10.62,1.25,15-.53s7.32-6.67,11-10.11c3-2.83,6.14-5.54,9.21-8.3l-.83-1.11c-6.44,0-12.88,0-19.32,0a3,3,0,0,0-1.89.8Q206.93,443.08,197.68,452.34Zm78.91-19.27h-4.2c-5.63,0-11.89-1.43-16.72.56s-8.24,7.43-12.23,11.39c-2.5,2.47-4.94,5-8,8.11,7.28,0,13.6,0,19.92,0a3,3,0,0,0,1.95-.66C263.57,446.22,269.77,439.94,276.59,433.07Zm38.53,0c-4.56,0-8.08.4-11.47-.08-7.2-1-12.53,1.38-17.09,7-3.63,4.5-8.14,8.29-13,13.1,7.51,0,13.93,0,20.36,0a3,3,0,0,0,1.89-.79C302,446.17,308.2,440,315.12,433.07ZM199.31,434l-.29-.88c-2.71,0-5.48.35-8.13-.06-8.74-1.37-15.41,1.45-20.81,8.53-3.06,4-7.14,7.25-11.51,11.58,7.6,0,14,0,20.48-.05a3.59,3.59,0,0,0,2.13-1.1C187.25,446,193.27,440,199.31,434Zm153.93-.56c-19.64-1.92-19.64-1.92-32.61,11.07-1.95,2-3.92,3.89-5.85,5.87-.69.71-1.27,1.52-2.33,2.8,7.06,0,13.39,0,19.73-.05a3.51,3.51,0,0,0,2.17-1C340.52,446.07,346.62,440,353.24,433.39Zm38.6-.32c-7.33,0-13.45-.09-19.57.08a6.12,6.12,0,0,0-3.65,1.73c-5.36,5.18-10.59,10.49-15.84,15.78a28.45,28.45,0,0,0-1.89,2.47c6.87,0,13.1,0,19.33,0a3.5,3.5,0,0,0,2.25-.81C378.71,446.18,384.88,440,391.84,433.07Zm37.5.83-.34-.83c-1.64,0-3.28,0-4.93,0-5.15.08-10.85-1.18-15.3.64s-7.35,6.68-10.93,10.23c-2.84,2.81-5.65,5.65-9.19,9.19,7.45,0,13.77,0,20.1,0a3.56,3.56,0,0,0,2.19-.94C417.11,446.1,423.22,440,429.34,433.9ZM427,453.14h8.33c4.19,0,8.4.15,12.58-.08a9.92,9.92,0,0,0,1.62-19.68,4.28,4.28,0,0,0-3.27.59C440,440,433.9,446.23,427,453.14Zm-266-20c-5.07,0-9.85-.25-14.58.07-4.49.31-7.72,3.58-8.64,7.93-.9,4.2.87,7.88,4.77,10.33Z" transform="translate(-112.85 -299.84)" style="fill:#a83b3e"/><path d="M197.68,452.34q9.27-9.22,18.56-18.42a3,3,0,0,1,1.89-.8c6.44-.06,12.88,0,19.32,0l.83,1.11c-3.07,2.76-6.2,5.47-9.21,8.3-3.66,3.44-6.67,8.34-11,10.11s-9.91.49-15,.53c-1.67,0-3.34,0-5,0Z" transform="translate(-112.85 -299.84)" style="fill:#a83b3e"/><path d="M276.59,433.07c-6.82,6.87-13,13.15-19.27,19.37a3,3,0,0,1-1.95.66c-6.32,0-12.64,0-19.92,0,3.05-3.11,5.49-5.64,8-8.11,4-4,7.4-9.4,12.23-11.39s11.09-.52,16.72-.56Z" transform="translate(-112.85 -299.84)" style="fill:#a83b3e"/><path d="M315.12,433.07C308.2,440,302,446.17,295.83,452.3a3,3,0,0,1-1.89.79c-6.43.05-12.85,0-20.36,0,4.84-4.81,9.35-8.6,13-13.1,4.56-5.65,9.89-8,17.09-7C307,433.47,310.56,433.07,315.12,433.07Z" transform="translate(-112.85 -299.84)" style="fill:#a83b3e"/><path d="M199.31,434c-6,6-12.06,12-18.13,18a3.59,3.59,0,0,1-2.13,1.1c-6.44.08-12.88.05-20.48.05,4.37-4.33,8.45-7.57,11.51-11.58,5.4-7.08,12.07-9.9,20.81-8.53,2.65.41,5.42.06,8.13.06Z" transform="translate(-112.85 -299.84)" style="fill:#a83b3e"/><path d="M353.24,433.39c-6.62,6.58-12.72,12.68-18.89,18.72a3.51,3.51,0,0,1-2.17,1c-6.34.08-12.67.05-19.73.05,1.06-1.28,1.64-2.09,2.33-2.8,1.93-2,3.9-3.92,5.85-5.87C333.6,431.47,333.6,431.47,353.24,433.39Z" transform="translate(-112.85 -299.84)" style="fill:#a83b3e"/><path d="M391.84,433.07c-7,6.93-13.13,13.11-19.37,19.22a3.5,3.5,0,0,1-2.25.81c-6.23.06-12.46,0-19.33,0a28.45,28.45,0,0,1,1.89-2.47c5.25-5.29,10.48-10.6,15.84-15.78a6.12,6.12,0,0,1,3.65-1.73C378.39,433,384.51,433.07,391.84,433.07Z" transform="translate(-112.85 -299.84)" style="fill:#a83b3e"/><path d="M429.34,433.9c-6.12,6.09-12.23,12.2-18.4,18.25a3.56,3.56,0,0,1-2.19.94c-6.33.07-12.65,0-20.1,0,3.54-3.54,6.35-6.38,9.19-9.19,3.58-3.55,6.61-8.47,10.93-10.23s10.15-.56,15.3-.64c1.65,0,3.29,0,4.93,0Z" transform="translate(-112.85 -299.84)" style="fill:#a83b3e"/><path d="M427,453.14c6.89-6.91,13-13.12,19.26-19.18a4.28,4.28,0,0,1,3.27-.59,9.92,9.92,0,0,1-1.62,19.68c-4.18.23-8.39.07-12.58.08Z" transform="translate(-112.85 -299.84)" style="fill:#a83b3e"/><path d="M161,433.17,142.52,451.5c-3.9-2.45-5.67-6.13-4.77-10.33.92-4.35,4.15-7.62,8.64-7.93C151.12,432.92,155.9,433.17,161,433.17Z" transform="translate(-112.85 -299.84)" style="fill:#a83b3e"/><path d="M189.39,356.84a6.25,6.25,0,0,1,6.09-5.92,6,6,0,0,1,0,11.9A6.26,6.26,0,0,1,189.39,356.84Z" transform="translate(-112.85 -299.84)" style="fill:#a83b3e"/><path d="M399.94,362.8a5.93,5.93,0,1,1,5.79-6.18A6.18,6.18,0,0,1,399.94,362.8Z" transform="translate(-112.85 -299.84)" style="fill:#a83b3e"/><path d="M265.12,331.31a5.86,5.86,0,1,1-6-5.89A5.92,5.92,0,0,1,265.12,331.31Z" transform="translate(-112.85 -299.84)" style="fill:#a83b3e"/><path d="M214,376.14a5.75,5.75,0,0,1-6,5.72,5.81,5.81,0,0,1-5.68-5.78,5.88,5.88,0,0,1,5.92-5.92A5.78,5.78,0,0,1,214,376.14Z" transform="translate(-112.85 -299.84)" style="fill:#a83b3e"/><path d="M304.12,356.4a5.88,5.88,0,0,1-6-5.86,5.8,5.8,0,0,1,5.51-5.92,5.89,5.89,0,0,1,6.21,5.62A6,6,0,0,1,304.12,356.4Z" transform="translate(-112.85 -299.84)" style="fill:#a83b3e"/><path d="M329,369.51a5.93,5.93,0,0,1-11.85.43,6.12,6.12,0,0,1,5.71-6.21A6.06,6.06,0,0,1,329,369.51Z" transform="translate(-112.85 -299.84)" style="fill:#a83b3e"/><path d="M342.34,343.54a5.85,5.85,0,0,1-.27-11.69,5.85,5.85,0,1,1,.27,11.69Z" transform="translate(-112.85 -299.84)" style="fill:#a83b3e"/><path d="M380.07,369.61a5.76,5.76,0,0,1-5.91,5.87,5.87,5.87,0,0,1-5.82-5.65,6,6,0,0,1,5.78-6.1A5.87,5.87,0,0,1,380.07,369.61Z" transform="translate(-112.85 -299.84)" style="fill:#a83b3e"/><path d="M246.6,350.92a5.95,5.95,0,0,1-.08,11.89,5.95,5.95,0,1,1,.08-11.89Z" transform="translate(-112.85 -299.84)" style="fill:#a83b3e"/></svg>